<mxfile host="app.diagrams.net" modified="2023-02-28T02:41:58.597Z" agent="5.0 (Windows)" etag="0etbTWDOcZSCguDYOURl" version="20.8.23" type="github">
  <diagram name="Page-1" id="c7558073-3199-34d8-9f00-42111426c3f3">
    <mxGraphModel dx="1434" dy="718" grid="1" gridSize="10" guides="1" tooltips="1" connect="1" arrows="1" fold="1" page="1" pageScale="1" pageWidth="826" pageHeight="1169" background="none" math="0" shadow="0">
      <root>
        <mxCell id="0" />
        <mxCell id="1" parent="0" />
        <mxCell id="qqJh7xZvRFPi1hq3-9UA-96" value="DTU" style="rounded=1;whiteSpace=wrap;html=1;fillColor=#fff2cc;strokeColor=#d6b656;" vertex="1" parent="1">
          <mxGeometry x="275" y="65" width="90" height="40" as="geometry" />
        </mxCell>
        <mxCell id="qqJh7xZvRFPi1hq3-9UA-98" value="计量电表" style="rounded=1;whiteSpace=wrap;html=1;fillColor=#fff2cc;strokeColor=#d6b656;" vertex="1" parent="1">
          <mxGeometry x="665" y="65" width="90" height="40" as="geometry" />
        </mxCell>
        <mxCell id="qqJh7xZvRFPi1hq3-9UA-99" value="红外转换" style="rounded=1;whiteSpace=wrap;html=1;fillColor=#fff2cc;strokeColor=#d6b656;" vertex="1" parent="1">
          <mxGeometry x="475" y="65" width="90" height="40" as="geometry" />
        </mxCell>
        <mxCell id="qqJh7xZvRFPi1hq3-9UA-106" value="" style="endArrow=classic;startArrow=classic;html=1;rounded=0;" edge="1" parent="1">
          <mxGeometry width="50" height="50" relative="1" as="geometry">
            <mxPoint x="385" y="85" as="sourcePoint" />
            <mxPoint x="465" y="85" as="targetPoint" />
          </mxGeometry>
        </mxCell>
        <mxCell id="qqJh7xZvRFPi1hq3-9UA-107" value="rs485" style="text;html=1;align=center;verticalAlign=middle;resizable=0;points=[];autosize=1;strokeColor=none;fillColor=none;" vertex="1" parent="1">
          <mxGeometry x="395" y="60" width="60" height="30" as="geometry" />
        </mxCell>
        <mxCell id="qqJh7xZvRFPi1hq3-9UA-112" value="" style="endArrow=classic;startArrow=classic;html=1;rounded=0;" edge="1" parent="1">
          <mxGeometry width="50" height="50" relative="1" as="geometry">
            <mxPoint x="575" y="85" as="sourcePoint" />
            <mxPoint x="655" y="85" as="targetPoint" />
          </mxGeometry>
        </mxCell>
        <mxCell id="qqJh7xZvRFPi1hq3-9UA-113" value="红外" style="text;html=1;align=center;verticalAlign=middle;resizable=0;points=[];autosize=1;strokeColor=none;fillColor=none;" vertex="1" parent="1">
          <mxGeometry x="590" y="60" width="50" height="30" as="geometry" />
        </mxCell>
        <mxCell id="qqJh7xZvRFPi1hq3-9UA-124" value="" style="edgeStyle=orthogonalEdgeStyle;rounded=0;orthogonalLoop=1;jettySize=auto;html=1;" edge="1" parent="1" source="qqJh7xZvRFPi1hq3-9UA-114" target="qqJh7xZvRFPi1hq3-9UA-123">
          <mxGeometry relative="1" as="geometry" />
        </mxCell>
        <mxCell id="qqJh7xZvRFPi1hq3-9UA-114" value="云服务器" style="rounded=1;whiteSpace=wrap;html=1;fillColor=#fff2cc;strokeColor=#d6b656;" vertex="1" parent="1">
          <mxGeometry x="260" y="190" width="120" height="60" as="geometry" />
        </mxCell>
        <mxCell id="qqJh7xZvRFPi1hq3-9UA-116" value="" style="endArrow=classic;html=1;rounded=0;" edge="1" parent="1">
          <mxGeometry width="50" height="50" relative="1" as="geometry">
            <mxPoint x="320" y="120" as="sourcePoint" />
            <mxPoint x="320" y="180" as="targetPoint" />
          </mxGeometry>
        </mxCell>
        <mxCell id="qqJh7xZvRFPi1hq3-9UA-129" value="" style="edgeStyle=orthogonalEdgeStyle;rounded=0;orthogonalLoop=1;jettySize=auto;html=1;" edge="1" parent="1" source="qqJh7xZvRFPi1hq3-9UA-123" target="qqJh7xZvRFPi1hq3-9UA-128">
          <mxGeometry relative="1" as="geometry" />
        </mxCell>
        <mxCell id="qqJh7xZvRFPi1hq3-9UA-123" value="接收队列" style="rounded=1;whiteSpace=wrap;html=1;fillColor=#fff2cc;strokeColor=#d6b656;" vertex="1" parent="1">
          <mxGeometry x="220" y="330" width="80" height="40" as="geometry" />
        </mxCell>
        <mxCell id="qqJh7xZvRFPi1hq3-9UA-126" value="" style="endArrow=classic;html=1;rounded=0;" edge="1" parent="1">
          <mxGeometry width="50" height="50" relative="1" as="geometry">
            <mxPoint x="320" y="170" as="sourcePoint" />
            <mxPoint x="320" y="120" as="targetPoint" />
          </mxGeometry>
        </mxCell>
        <mxCell id="qqJh7xZvRFPi1hq3-9UA-127" value="socket" style="text;html=1;align=center;verticalAlign=middle;resizable=0;points=[];autosize=1;strokeColor=none;fillColor=none;" vertex="1" parent="1">
          <mxGeometry x="320" y="140" width="60" height="30" as="geometry" />
        </mxCell>
        <mxCell id="qqJh7xZvRFPi1hq3-9UA-132" value="" style="edgeStyle=orthogonalEdgeStyle;rounded=0;orthogonalLoop=1;jettySize=auto;html=1;" edge="1" parent="1" source="qqJh7xZvRFPi1hq3-9UA-128" target="qqJh7xZvRFPi1hq3-9UA-131">
          <mxGeometry relative="1" as="geometry" />
        </mxCell>
        <mxCell id="qqJh7xZvRFPi1hq3-9UA-161" value="" style="edgeStyle=orthogonalEdgeStyle;rounded=0;orthogonalLoop=1;jettySize=auto;html=1;" edge="1" parent="1" source="qqJh7xZvRFPi1hq3-9UA-128" target="qqJh7xZvRFPi1hq3-9UA-160">
          <mxGeometry relative="1" as="geometry" />
        </mxCell>
        <mxCell id="qqJh7xZvRFPi1hq3-9UA-128" value="解析" style="rounded=1;whiteSpace=wrap;html=1;fillColor=#fff2cc;strokeColor=#d6b656;" vertex="1" parent="1">
          <mxGeometry x="220" y="420" width="80" height="40" as="geometry" />
        </mxCell>
        <mxCell id="qqJh7xZvRFPi1hq3-9UA-135" value="" style="edgeStyle=orthogonalEdgeStyle;rounded=0;orthogonalLoop=1;jettySize=auto;html=1;" edge="1" parent="1" source="qqJh7xZvRFPi1hq3-9UA-131" target="qqJh7xZvRFPi1hq3-9UA-134">
          <mxGeometry relative="1" as="geometry" />
        </mxCell>
        <mxCell id="qqJh7xZvRFPi1hq3-9UA-136" value="" style="edgeStyle=orthogonalEdgeStyle;rounded=0;orthogonalLoop=1;jettySize=auto;html=1;" edge="1" parent="1" source="qqJh7xZvRFPi1hq3-9UA-131" target="qqJh7xZvRFPi1hq3-9UA-134">
          <mxGeometry relative="1" as="geometry" />
        </mxCell>
        <mxCell id="qqJh7xZvRFPi1hq3-9UA-137" value="" style="edgeStyle=orthogonalEdgeStyle;rounded=0;orthogonalLoop=1;jettySize=auto;html=1;" edge="1" parent="1" source="qqJh7xZvRFPi1hq3-9UA-131" target="qqJh7xZvRFPi1hq3-9UA-134">
          <mxGeometry relative="1" as="geometry" />
        </mxCell>
        <mxCell id="qqJh7xZvRFPi1hq3-9UA-138" value="" style="edgeStyle=orthogonalEdgeStyle;rounded=0;orthogonalLoop=1;jettySize=auto;html=1;" edge="1" parent="1" source="qqJh7xZvRFPi1hq3-9UA-131" target="qqJh7xZvRFPi1hq3-9UA-134">
          <mxGeometry relative="1" as="geometry" />
        </mxCell>
        <mxCell id="qqJh7xZvRFPi1hq3-9UA-139" value="" style="edgeStyle=orthogonalEdgeStyle;rounded=0;orthogonalLoop=1;jettySize=auto;html=1;" edge="1" parent="1" source="qqJh7xZvRFPi1hq3-9UA-131" target="qqJh7xZvRFPi1hq3-9UA-134">
          <mxGeometry relative="1" as="geometry" />
        </mxCell>
        <mxCell id="qqJh7xZvRFPi1hq3-9UA-143" value="" style="edgeStyle=orthogonalEdgeStyle;rounded=0;orthogonalLoop=1;jettySize=auto;html=1;" edge="1" parent="1" source="qqJh7xZvRFPi1hq3-9UA-131" target="qqJh7xZvRFPi1hq3-9UA-142">
          <mxGeometry relative="1" as="geometry" />
        </mxCell>
        <mxCell id="qqJh7xZvRFPi1hq3-9UA-131" value="进入推送队列" style="rounded=1;whiteSpace=wrap;html=1;fillColor=#fff2cc;strokeColor=#d6b656;" vertex="1" parent="1">
          <mxGeometry x="220" y="520" width="80" height="40" as="geometry" />
        </mxCell>
        <mxCell id="qqJh7xZvRFPi1hq3-9UA-133" value="成功" style="text;html=1;align=center;verticalAlign=middle;resizable=0;points=[];autosize=1;strokeColor=none;fillColor=none;" vertex="1" parent="1">
          <mxGeometry x="210" y="475" width="50" height="30" as="geometry" />
        </mxCell>
        <mxCell id="qqJh7xZvRFPi1hq3-9UA-134" value="后台数据库" style="rounded=1;whiteSpace=wrap;html=1;fillColor=#fff2cc;strokeColor=#d6b656;" vertex="1" parent="1">
          <mxGeometry x="220" y="610" width="80" height="40" as="geometry" />
        </mxCell>
        <mxCell id="qqJh7xZvRFPi1hq3-9UA-142" value="第三方接口" style="rounded=1;whiteSpace=wrap;html=1;fillColor=#fff2cc;strokeColor=#d6b656;" vertex="1" parent="1">
          <mxGeometry x="80" y="520" width="80" height="40" as="geometry" />
        </mxCell>
        <mxCell id="qqJh7xZvRFPi1hq3-9UA-152" value="" style="edgeStyle=orthogonalEdgeStyle;rounded=0;orthogonalLoop=1;jettySize=auto;html=1;" edge="1" parent="1" source="qqJh7xZvRFPi1hq3-9UA-144" target="qqJh7xZvRFPi1hq3-9UA-151">
          <mxGeometry relative="1" as="geometry" />
        </mxCell>
        <mxCell id="qqJh7xZvRFPi1hq3-9UA-144" value="定时轮训" style="rounded=1;whiteSpace=wrap;html=1;fillColor=#fff2cc;strokeColor=#d6b656;" vertex="1" parent="1">
          <mxGeometry x="460" y="420" width="90" height="40" as="geometry" />
        </mxCell>
        <mxCell id="qqJh7xZvRFPi1hq3-9UA-147" value="" style="endArrow=classic;html=1;rounded=0;" edge="1" parent="1">
          <mxGeometry width="50" height="50" relative="1" as="geometry">
            <mxPoint x="320" y="440" as="sourcePoint" />
            <mxPoint x="450" y="440" as="targetPoint" />
          </mxGeometry>
        </mxCell>
        <mxCell id="qqJh7xZvRFPi1hq3-9UA-148" value="通知 解析事件结束" style="text;html=1;align=center;verticalAlign=middle;resizable=0;points=[];autosize=1;strokeColor=none;fillColor=none;" vertex="1" parent="1">
          <mxGeometry x="325" y="410" width="120" height="30" as="geometry" />
        </mxCell>
        <mxCell id="qqJh7xZvRFPi1hq3-9UA-149" value="" style="endArrow=none;html=1;rounded=0;" edge="1" parent="1">
          <mxGeometry width="50" height="50" relative="1" as="geometry">
            <mxPoint x="300" y="539.5" as="sourcePoint" />
            <mxPoint x="510" y="540" as="targetPoint" />
          </mxGeometry>
        </mxCell>
        <mxCell id="qqJh7xZvRFPi1hq3-9UA-150" value="" style="endArrow=classic;html=1;rounded=0;" edge="1" parent="1">
          <mxGeometry width="50" height="50" relative="1" as="geometry">
            <mxPoint x="504.5" y="540" as="sourcePoint" />
            <mxPoint x="504.5" y="470" as="targetPoint" />
          </mxGeometry>
        </mxCell>
        <mxCell id="qqJh7xZvRFPi1hq3-9UA-154" value="" style="edgeStyle=orthogonalEdgeStyle;rounded=0;orthogonalLoop=1;jettySize=auto;html=1;" edge="1" parent="1" source="qqJh7xZvRFPi1hq3-9UA-151" target="qqJh7xZvRFPi1hq3-9UA-153">
          <mxGeometry relative="1" as="geometry" />
        </mxCell>
        <mxCell id="qqJh7xZvRFPi1hq3-9UA-151" value="满足轮训条件" style="rounded=1;whiteSpace=wrap;html=1;fillColor=#fff2cc;strokeColor=#d6b656;" vertex="1" parent="1">
          <mxGeometry x="460" y="330" width="90" height="40" as="geometry" />
        </mxCell>
        <mxCell id="qqJh7xZvRFPi1hq3-9UA-153" value="发送队列" style="rounded=1;whiteSpace=wrap;html=1;fillColor=#fff2cc;strokeColor=#d6b656;" vertex="1" parent="1">
          <mxGeometry x="460" y="200" width="90" height="40" as="geometry" />
        </mxCell>
        <mxCell id="qqJh7xZvRFPi1hq3-9UA-155" value="" style="endArrow=classic;html=1;rounded=0;" edge="1" parent="1">
          <mxGeometry width="50" height="50" relative="1" as="geometry">
            <mxPoint x="445" y="219.5" as="sourcePoint" />
            <mxPoint x="395" y="219.5" as="targetPoint" />
          </mxGeometry>
        </mxCell>
        <mxCell id="qqJh7xZvRFPi1hq3-9UA-160" value="处理异常" style="rounded=1;whiteSpace=wrap;html=1;fillColor=#fff2cc;strokeColor=#d6b656;" vertex="1" parent="1">
          <mxGeometry x="80" y="420" width="80" height="40" as="geometry" />
        </mxCell>
        <mxCell id="qqJh7xZvRFPi1hq3-9UA-162" value="失败" style="text;html=1;align=center;verticalAlign=middle;resizable=0;points=[];autosize=1;strokeColor=none;fillColor=none;" vertex="1" parent="1">
          <mxGeometry x="170" y="420" width="50" height="30" as="geometry" />
        </mxCell>
      </root>
    </mxGraphModel>
  </diagram>
</mxfile>
